<svg width="806" height="121" viewBox="0 0 806 121" fill="none" xmlns="http://www.w3.org/2000/svg">
<path d="M174.5 90.6V30H187.9V78.5H211.6V90.6H174.5Z" fill="white"/>
<path d="M219.7 90.6V30H261.1V42.2H233.1V53.6H259.3V65.5H233.1V78.5H261.7V90.6H219.7Z" fill="white"/>
<path d="M266.3 90.6L297.9 26.5L329.5 90.6H315.2L310.5 80.9H285.2L280.5 90.6H266.3ZM290.1 69.5H305.5L297.8 53.6L290.1 69.5Z" fill="white"/>
<path d="M336.3 90.6V30H361.7C367.4 30 372.2 31.9 376.2 35.8C380.3 39.6 382.3 44.3 382.3 50C382.3 57.7 378 64.4 371.5 67.2L386.3 90.6H371.2L358.6 70.4H358.4H349.6V90.6H336.3ZM349.6 58.5H360.2C365.4 58.5 368.9 55.2 368.9 50.1C368.9 45.5 365.6 42.1 361.3 42.1H349.6V58.5Z" fill="white"/>
<path d="M393.4 90.6V27.6L434.1 64.4V29.9H447.3V92.9L406.6 56.2V90.6H393.4Z" fill="white"/>
<path d="M459.5 90.6V30H472.9V90.6H459.5Z" fill="white"/>
<path d="M485.2 90.6V27.6L525.9 64.4V29.9H539.1V92.9L498.4 56.2V90.6H485.2Z" fill="white"/>
<path d="M599.1 34.1001V47.2001C594 43.1001 587.8 41.1001 580.7 41.1001C575.3 41.1001 570.8 42.9001 567 46.6001C563.2 50.3001 561.4 54.8 561.4 60.3C561.4 65.8 563.2 70.3 566.9 74C570.6 77.6 575.2 79.4001 580.6 79.4001C585.9 79.4001 590.3 77.8001 593.8 74.7001V66.5H578V54.6001H606.5V79.1001C600.8 86.7001 591.3 91.5 580.7 91.5C571.6 91.5 563.9 88.5001 557.6 82.6001C551.2 76.6001 548.1 69.2001 548.1 60.2001C548.1 51.2001 551.2 43.8 557.6 37.8C564 31.8 571.6 28.8 580.7 28.8C587.7 29 593.8 30.7001 599.1 34.1001Z" fill="white"/>
<path d="M618.6 90.6V30H648.5V34.2H623.1V56.6H646.3V60.8H623.1V90.6H618.6Z" fill="white"/>
<path d="M661.1 29.9H665.6V70C665.6 81.1 672.1 87.4 682.7 87.4C693.2 87.4 699.8 81.1 699.8 70V29.9H704.3V70.4C704.3 77.1 702.3 82.3 698.4 86.1C694.5 89.8 689.3 91.6 682.7 91.6C676.1 91.6 671 89.8 667 86.1C663.1 82.4 661.1 77.1 661.1 70.4V29.9Z" fill="white"/>
<path d="M740.9 50.6001C741.7 51.9001 742.5 53.1 743.3 54.3L761.2 29.8H718.7V34H753L740.9 50.6001Z" fill="#10A6E0"/>
<path d="M737 63C736.2 61.8 735.4 60.5 734.6 59.3L711.8 90.6001H759.9V86.4001H720L737 63Z" fill="#10A6E0"/>
<path d="M772.3 90.6V30H805.4V34.2H776.9V56.5H803.8V60.8H776.9V86.6H806V90.8H772.3V90.6Z" fill="white"/>
<path d="M99 120.5C99.1 120.5 99.1 120.5 99 120.5L132 60.3L99 0H33L0 60.3L33 120.6H98.9L99 120.5Z" fill="#27BAB8"/>
<path d="M96.7999 117C96.7999 116.9 96.7999 116.9 96.7999 117L127.9 60.4L96.7999 3.59998H34.4999L3.3999 60.3L34.4999 117H96.6999C96.6999 117 96.6999 117 96.7999 117Z" fill="#303A42"/>
<path d="M104 80.4L39.2 41.2L42.5 35L107.3 74.2L104 80.4Z" fill="#0CA7E0"/>
<path d="M69.5999 43.1L38.3999 24.2L41.6999 18L72.8999 36.9L69.5999 43.1Z" fill="white"/>
<path d="M104.8 64.6L73.7 45.7L77 39.5L108.1 58.4L104.8 64.6Z" fill="#29BAB9"/>
<path d="M62.3001 84.8L20.8 59.7L24.1 53.5L65.6 78.6L62.3001 84.8Z" fill="#29BAB9"/>
<path d="M73.1 75.7L41.8 56.7999L45.1 50.7L76.4 69.6L73.1 75.7Z" fill="white"/>
<path d="M89.7 101.7L66.7 87.8L70.1 81.6L93 95.5L89.7 101.7Z" fill="#0CA7E0"/>
</svg>
